# xmcd
#
# Track frame offsets:
#	150
#	11884
#	24551
#	36193
#	47686
#	62653
#	75543
#	90057
#	106099
#	116335
#	126939
#	138953
#	149984
#	164059
#	174181
#	186037
#	197730
#	210220
#	224511
#	236735
#	247793
#	257574
#	266360
#	276180
#
# Disc length: 3818 seconds
#
# Revision: 1
# Processed by: cddbd v1.5.2PL0 Copyright (c) Steve Scherf et al.
# Submitted via: EasyCDDAExtractor 2010.6.0.0
#
DISCID=4c0ee818
DTITLE=Various Artist - La Fiesta Del 40 Tangos Para Bailar-02
DYEAR=2011
DGENRE=Tango
TTITLE0=Aníbal Troilo - Cachirulo
TTITLE1=Aníbal Troilo - Guapeando
TTITLE2=Aníbal Troilo - El Tamango
TTITLE3=Aníbal Troilo - Milongueando En El 40
TTITLE4=Osvaldo Pugliese - La Rayuela
TTITLE5=Osvaldo Pugliese - Para Dos
TTITLE6=Osvaldo Pugliese - Chique
TTITLE7=Osvaldo Pugliese - Gallo Ciego
TTITLE8=Carlos Di Sarli Con Alberto Podestá - Rosas De Otoño
TTITLE9=Carlos Di Sarli Con Agustín Volpe - Ausencia
TTITLE10=Carlos Di Sarli Con Roberto Rufino - Cortando Caminos
TTITLE11=Carlos Di Sarli Con Roberto Rufino -  - Alma Mia
TTITLE12=Juan D'arienzo -  El Romantico
TTITLE13=Juan D'arienzo - Seguime Si Podes
TTITLE14=Juan D'arienzo - El Rezongon
TTITLE15=Juan D'arienzo - El Pensamiento
TTITLE16=Pedro Laurenz Con Juan Carlos Casas - De Puro Guapo
TTITLE17=Pedro Laurenz Con Juan Carlos Casas - Vieja Amiga
TTITLE18=Pedro Laurenz Con Juan Carlos Casas - No Me Extraña
TTITLE19=Pedro Laurenz Con Juan Carlos Casas - Amurado
TTITLE20=Pedro Laurenz Con Juan Carlos Casas - Campo Afuera
TTITLE21=Rodolfo Biagi Con Jorge Ortiz -  Cantando Se Van Las Penas
TTITLE22=Rodolfo Biagi - Picante
TTITLE23=Rodolfo Biagi Con Alberto Amo - Flor De Monserrat
EXTD=
EXTT0=
EXTT1=
EXTT2=
EXTT3=
EXTT4=
EXTT5=
EXTT6=
EXTT7=
EXTT8=
EXTT9=
EXTT10=
EXTT11=
EXTT12=
EXTT13=
EXTT14=
EXTT15=
EXTT16=
EXTT17=
EXTT18=
EXTT19=
EXTT20=
EXTT21=
EXTT22=
EXTT23=
PLAYORDER=
